HIERARCHY
ROOT Hips
{
	OFFSET 0.000000 0.000000 0.000000
	CHANNELS 6 Xposition Yposition Zposition Xrotation Yrotation Zrotation
	JOINT LeftUpLeg_virtual
	{
		OFFSET 0.000000 0.000000 0.000000
		CHANNELS 3 Xrotation Yrotation Zrotation
		JOINT LeftUpLeg
		{
			OFFSET 10.205400 -3.823500 0.155100
			CHANNELS 3 Xrotation Yrotation Zrotation
			JOINT LeftLeg
			{
				OFFSET 0.708757 -12.982077 0.567790
				CHANNELS 3 Xrotation Yrotation Zrotation
				JOINT LeftFoot
				{
					OFFSET -0.708756 -10.717838 -2.184338
					CHANNELS 3 Xrotation Yrotation Zrotation
					JOINT LeftToeBase
					{
						OFFSET 0.108149 -7.191104 7.560241
						CHANNELS 3 Xrotation Yrotation Zrotation
						JOINT LeftToe_End
						{
							OFFSET 0.070230 0.081724 4.490308
							CHANNELS 3 Xrotation Yrotation Zrotation
							End Site
							{
								OFFSET 0 0 0
							}
						}
					}
				}
			}
		}
	}
	JOINT RightUpLeg_virtual
	{
		OFFSET 0.000000 0.000000 0.000000
		CHANNELS 3 Xrotation Yrotation Zrotation
		JOINT RightUpLeg
		{
			OFFSET -10.205400 -3.823500 0.005500
			CHANNELS 3 Xrotation Yrotation Zrotation
			JOINT RightLeg
			{
				OFFSET -0.708756 -12.982134 0.610632
				CHANNELS 3 Xrotation Yrotation Zrotation
				JOINT RightFoot
				{
					OFFSET 0.708754 -10.717769 -1.945823
					CHANNELS 3 Xrotation Yrotation Zrotation
					JOINT RightToeBase
					{
						OFFSET -0.108140 -7.191069 7.372968
						CHANNELS 3 Xrotation Yrotation Zrotation
						JOINT RightToe_End
						{
							OFFSET -0.070227 0.081735 4.479403
							CHANNELS 3 Xrotation Yrotation Zrotation
							End Site
							{
								OFFSET 0 0 0
							}
						}
					}
				}
			}
		}
	}
	JOINT Spine_virtual
	{
		OFFSET 0.000000 0.000000 0.000000
		CHANNELS 3 Xrotation Yrotation Zrotation
		JOINT Spine
		{
			OFFSET 0.000000 6.876099 0.125700
			CHANNELS 3 Xrotation Yrotation Zrotation
			JOINT Spine1
			{
				OFFSET 0.000000 5.730043 0.104720
				CHANNELS 3 Xrotation Yrotation Zrotation
				JOINT Spine1_split
				{
					OFFSET 0.000000 5.730043 0.104720
					CHANNELS 3 Xrotation Yrotation Zrotation
					JOINT Spine2
					{
						OFFSET 0.000000 5.730043 0.104720
						CHANNELS 3 Xrotation Yrotation Zrotation
						JOINT Neck_virtual
						{
							OFFSET 0.000000 0.000000 0.000000
							CHANNELS 3 Xrotation Yrotation Zrotation
							JOINT Neck
							{
								OFFSET 0.000000 10.314075 0.188496
								CHANNELS 3 Xrotation Yrotation Zrotation
								JOINT Head
								{
									OFFSET 0.000000 7.643700 -2.377400
									CHANNELS 3 Xrotation Yrotation Zrotation
									JOINT HeadTop_End
									{
										OFFSET 0.000000 43.788605 -13.619600
										CHANNELS 3 Xrotation Yrotation Zrotation
										End Site
										{
											OFFSET 0 0 0
										}
									}
								}
							}
						}
						JOINT LeftShoulder_virtual
						{
							OFFSET 0.000000 0.000000 0.000000
							CHANNELS 3 Xrotation Yrotation Zrotation
							JOINT LeftShoulder
							{
								OFFSET 2.196100 4.412489 0.087492
								CHANNELS 3 Xrotation Yrotation Zrotation
								JOINT LeftShoulder_split
								{
									OFFSET 2.196100 4.412489 0.087492
									CHANNELS 3 Xrotation Yrotation Zrotation
									JOINT LeftArm
									{
										OFFSET 8.771219 -2.981674 -0.026999
										CHANNELS 3 Xrotation Yrotation Zrotation
										JOINT LeftForeArm
										{
											OFFSET 8.512804 0.000000 -0.000000
											CHANNELS 3 Xrotation Yrotation Zrotation
											JOINT LeftHand
											{
												OFFSET 18.484802 0.000000 -0.000000
												CHANNELS 3 Xrotation Yrotation Zrotation
												End Site
												{
													OFFSET 0 0 0
												}
											}
										}
									}
								}
							}
						}
						JOINT RightShoulder_virtual
						{
							OFFSET 0.000000 0.000000 0.000000
							CHANNELS 3 Xrotation Yrotation Zrotation
							JOINT RightShoulder
							{
								OFFSET -2.196100 4.412496 0.070690
								CHANNELS 3 Xrotation Yrotation Zrotation
								JOINT RightShoulder_split
								{
									OFFSET -2.196100 4.412496 0.070690
									CHANNELS 3 Xrotation Yrotation Zrotation
									JOINT RightArm
									{
										OFFSET -8.771282 -2.981682 -0.094208
										CHANNELS 3 Xrotation Yrotation Zrotation
										JOINT RightForeArm
										{
											OFFSET -8.494598 0.000000 0.000000
											CHANNELS 3 Xrotation Yrotation Zrotation
											JOINT RightHand
											{
												OFFSET -18.483803 0.000000 0.000001
												CHANNELS 3 Xrotation Yrotation Zrotation
												End Site
												{
													OFFSET 0 0 0
												}
											}
										}
									}
								}
							}
						}
					}
				}
			}
		}
	}
}
MOTION
Frames: 11
Frame Time: 0.03333333
-0.124564 30.569740 0.130150 0.000000 0.000000 0.000000 -1.734725 -16.997230 -1.758443 -36.491211 15.357062 18.721642 59.081553 -1.433094 8.643910 -22.579352 3.824672 -11.865893 -0.000116 0.000004 0.000000 0.000000 0.000000 0.000000 -1.734725 -16.997230 -1.758443 -24.889554 -21.971776 -17.700007 54.547328 0.166016 -10.216746 -28.571878 -6.240893 16.463609 -0.044158 0.000012 -0.000004 0.000000 0.000000 0.000000 -1.734725 -16.997230 -1.758443 3.891057 2.331695 -0.547256 2.929112 2.056186 -0.138334 0.000000 0.000000 0.000000 0.000000 0.000000 0.000000 2.894091 2.112998 -0.161224 1.137081 0.245403 5.249918 -1.998749 7.430612 1.905182 0.000000 0.000000 0.000000 2.894091 2.112998 -0.161224 1.375472 -4.867615 21.431192 0.000000 0.000000 0.000000 -66.234277 -43.614853 -65.822034 -0.000003 -37.698392 -0.000003 0.000000 0.000000 0.000000 2.894091 2.112998 -0.161224 0.445410 -0.777914 -3.588552 0.000000 0.000000 0.000000 -96.770694 65.301157 91.341780 -0.000009 28.227451 0.000011 0.000000 0.000000 0.000000 
-0.121078 30.580116 0.128630 0.000000 0.000000 0.000000 -1.625441 -16.913876 -1.788437 -36.744345 15.442571 18.669861 59.099455 -1.472192 8.938786 -22.511284 3.835327 -11.920149 -0.000113 0.000005 -0.000001 0.000000 0.000000 0.000000 -1.625441 -16.913876 -1.788437 -24.671746 -21.627543 -17.356226 54.300325 -0.331757 -10.201594 -28.447622 -6.316136 16.736868 -0.041690 -0.000007 0.000001 0.000000 0.000000 0.000000 -1.625441 -16.913876 -1.788437 3.809221 2.283685 -0.586490 2.860568 2.025400 -0.161203 0.000000 0.000000 0.000000 0.000000 0.000000 0.000000 2.825895 2.080953 -0.184224 1.012363 0.275953 5.218360 -1.628341 7.575833 2.118157 0.000000 0.000000 0.000000 2.825895 2.080953 -0.184224 1.196434 -4.307702 21.316512 0.000000 0.000000 0.000000 -66.220303 -44.104693 -66.348765 0.000003 -37.562345 0.000011 0.000000 0.000000 0.000000 2.825895 2.080953 -0.184224 0.420646 -0.879272 -3.679165 0.000000 0.000000 0.000000 -97.395725 65.635359 92.333455 0.000005 28.079224 -0.000004 0.000000 0.000000 0.000000 
-0.117787 30.591152 0.124937 0.000000 0.000000 0.000000 -1.537978 -16.817731 -1.816625 -36.966060 15.514037 18.594358 59.096941 -1.503171 9.231076 -22.424775 3.847729 -11.977374 -0.000113 0.000004 0.000000 0.000000 0.000000 0.000000 -1.537978 -16.817731 -1.816625 -24.438567 -21.302009 -17.029115 54.062293 -0.839507 -10.186137 -28.333414 -6.390265 17.007456 -0.038295 0.000011 -0.000004 0.000000 0.000000 0.000000 -1.537978 -16.817731 -1.816625 3.718813 2.227771 -0.626081 2.785400 1.989154 -0.186987 0.000000 0.000000 0.000000 0.000000 0.000000 0.000000 2.751001 2.043540 -0.210101 0.881318 0.314081 5.181896 -1.262388 7.714977 2.379160 0.000000 0.000000 0.000000 2.751001 2.043540 -0.210101 1.017819 -3.758641 21.178255 0.000000 0.000000 0.000000 -66.257841 -44.789618 -66.874007 -0.000003 -37.199997 0.000000 0.000000 0.000000 0.000000 2.751001 2.043540 -0.210101 0.404730 -0.938104 -3.847439 0.000000 0.000000 0.000000 -97.861284 65.982332 93.157264 -0.000001 27.935721 0.000005 0.000000 0.000000 0.000000 
-0.116595 30.602173 0.123081 0.000000 0.000000 0.000000 -1.519556 -16.771519 -1.842723 -37.050931 15.613123 18.530160 59.059881 -1.520787 9.485972 -22.364922 3.865787 -12.046633 -0.000115 0.000004 0.000000 0.000000 0.000000 0.000000 -1.519556 -16.771519 -1.842723 -24.230236 -21.060861 -16.795367 53.879025 -1.191876 -10.177778 -28.242839 -6.439761 17.192594 -0.034294 -0.000018 0.000004 0.000000 0.000000 0.000000 -1.519556 -16.771519 -1.842723 3.640639 2.193517 -0.642703 2.720136 1.964025 -0.202784 0.000000 0.000000 0.000000 0.000000 0.000000 0.000000 2.686129 2.016983 -0.225833 0.805618 0.333324 5.151569 -0.868449 7.768652 2.595073 0.000000 0.000000 0.000000 2.686129 2.016983 -0.225833 0.892478 -3.360372 20.911826 0.000000 0.000000 0.000000 -66.351839 -45.583429 -67.374284 -0.000001 -36.601030 0.000002 0.000000 0.000000 0.000000 2.686129 2.016983 -0.225833 0.404619 -0.911843 -4.115770 0.000000 0.000000 0.000000 -97.947549 66.311725 93.575736 0.000007 27.811137 -0.000007 0.000000 0.000000 0.000000 
-0.114496 30.611530 0.123617 0.000000 0.000000 0.000000 -1.549529 -16.781732 -1.859873 -37.038255 15.771153 18.483720 59.007384 -1.535357 9.716008 -22.343232 3.881994 -12.114917 -0.000117 0.000004 0.000000 0.000000 0.000000 0.000000 -1.549529 -16.781732 -1.859873 -24.081640 -20.888059 -16.664285 53.762475 -1.384058 -10.176709 -28.171699 -6.463317 17.300242 -0.030288 -0.000005 0.000002 0.000000 0.000000 0.000000 -1.549529 -16.781732 -1.859873 3.592416 2.185718 -0.647438 2.678028 1.954680 -0.211601 0.000000 0.000000 0.000000 0.000000 0.000000 0.000000 2.644455 2.006183 -0.234602 0.771469 0.337468 5.138730 -0.468692 7.780811 2.717875 0.000000 0.000000 0.000000 2.644455 2.006183 -0.234602 0.815017 -3.082161 20.528287 0.000000 0.000000 0.000000 -66.428439 -46.419086 -67.774908 -0.000009 -35.955250 0.000004 0.000000 0.000000 0.000000 2.644455 2.006183 -0.234602 0.419421 -0.806296 -4.465611 0.000000 0.000000 0.000000 -97.703582 66.581217 93.623500 -0.000005 27.694759 -0.000005 0.000000 0.000000 0.000000 
-0.111621 30.618675 0.125217 0.000000 0.000000 0.000000 -1.579004 -16.801828 -1.867944 -37.027227 15.956949 18.445503 58.963459 -1.561730 9.939956 -22.334534 3.891573 -12.170984 -0.000112 0.000005 -0.000001 0.000000 0.000000 0.000000 -1.579004 -16.801828 -1.867944 -23.979922 -20.756470 -16.583699 53.684378 -1.515469 -10.177415 -28.118554 -6.474266 17.378783 -0.026020 0.000025 0.000004 0.000000 0.000000 0.000000 -1.579004 -16.801828 -1.867944 3.547304 2.181060 -0.661195 2.637117 1.947500 -0.222789 0.000000 0.000000 0.000000 0.000000 0.000000 0.000000 2.604091 1.997328 -0.245805 0.718406 0.348364 5.125109 -0.090360 7.838705 2.798632 0.000000 0.000000 0.000000 2.604091 1.997328 -0.245805 0.743496 -2.807926 20.151428 0.000000 0.000000 0.000000 -66.508858 -47.286930 -68.149176 0.000001 -35.325861 0.000009 0.000000 0.000000 0.000000 2.604091 1.997328 -0.245805 0.435960 -0.695854 -4.817400 0.000000 0.000000 0.000000 -97.464826 66.838025 93.651306 0.000001 27.564096 -0.000006 0.000000 0.000000 0.000000 
-0.110224 30.623718 0.126883 0.000000 0.000000 0.000000 -1.596474 -16.813569 -1.866646 -37.037370 16.141778 18.411495 58.927396 -1.597821 10.151799 -22.323985 3.893256 -12.217597 -0.000118 0.000003 -0.000001 0.000000 0.000000 0.000000 -1.596474 -16.813569 -1.866646 -23.911572 -20.656148 -16.532089 53.636123 -1.621161 -10.178060 -28.087696 -6.479837 17.442189 -0.021943 0.000001 -0.000005 0.000000 0.000000 0.000000 -1.596474 -16.813569 -1.866646 3.496125 2.169021 -0.682360 2.591978 1.934542 -0.238927 0.000000 0.000000 0.000000 0.000000 0.000000 0.000000 2.559616 1.982525 -0.261822 0.659626 0.357063 5.115563 0.335489 7.901888 2.849078 0.000000 0.000000 0.000000 2.559616 1.982525 -0.261822 0.669503 -2.514810 19.790687 0.000000 0.000000 0.000000 -66.608039 -48.211683 -68.546276 0.000001 -34.642798 0.000001 0.000000 0.000000 0.000000 2.559616 1.982525 -0.261822 0.455457 -0.574683 -5.192784 0.000000 0.000000 0.000000 -97.244449 67.110413 93.686338 -0.000011 27.418114 0.000009 0.000000 0.000000 0.000000 
-0.107898 30.626835 0.124685 0.000000 0.000000 0.000000 -1.599267 -16.812833 -1.862726 -37.087671 16.305644 18.391089 58.907868 -1.645093 10.328452 -22.302837 3.882967 -12.238833 -0.000112 0.000005 0.000000 0.000000 0.000000 0.000000 -1.599267 -16.812833 -1.862726 -23.864812 -20.546490 -16.475775 53.603792 -1.743067 -10.177667 -28.059384 -6.492479 17.510259 -0.017916 -0.000009 0.000003 0.000000 0.000000 0.000000 -1.599267 -16.812833 -1.862726 3.447720 2.154428 -0.699582 2.550967 1.919337 -0.255958 0.000000 0.000000 0.000000 0.000000 0.000000 0.000000 2.519118 1.965793 -0.278553 0.629737 0.354950 5.119561 0.837739 7.943326 2.854678 0.000000 0.000000 0.000000 2.519118 1.965793 -0.278553 0.597686 -2.215536 19.436251 0.000000 0.000000 0.000000 -66.702541 -49.274583 -68.938069 -0.000007 -33.852023 -0.000013 0.000000 0.000000 0.000000 2.519118 1.965793 -0.278553 0.477609 -0.445214 -5.592083 0.000000 0.000000 0.000000 -97.037058 67.410197 93.739763 0.000002 27.266627 0.000004 0.000000 0.000000 0.000000 
-0.104261 30.629959 0.111628 0.000000 0.000000 0.000000 -1.585805 -16.818195 -1.847604 -37.138327 16.365101 18.396694 58.867119 -1.668505 10.341961 -22.244324 3.852636 -12.214167 -0.000111 0.000005 -0.000001 0.000000 0.000000 0.000000 -1.585805 -16.818195 -1.847604 -23.935274 -20.548313 -16.493720 53.613211 -1.740051 -10.181544 -28.027055 -6.472329 17.494403 -0.016840 -0.000001 0.000006 0.000000 0.000000 0.000000 -1.585805 -16.818195 -1.847604 3.431166 2.143781 -0.712907 2.535909 1.908038 -0.268975 0.000000 0.000000 0.000000 0.000000 0.000000 0.000000 2.504539 1.953484 -0.291314 0.644092 0.365973 5.116360 1.048297 8.026711 2.769950 0.000000 0.000000 0.000000 2.504539 1.953484 -0.291314 0.550698 -2.031273 19.246022 0.000000 0.000000 0.000000 -66.920144 -49.974718 -69.216597 0.000008 -33.224209 0.000006 0.000000 0.000000 0.000000 2.504539 1.953484 -0.291314 0.502247 -0.314672 -5.905970 0.000000 0.000000 0.000000 -96.726960 67.464879 93.500741 -0.000000 27.221420 -0.000004 0.000000 0.000000 0.000000 
-0.100677 30.639469 0.077143 0.000000 0.000000 0.000000 -1.551827 -16.807004 -1.813556 -37.200202 16.317100 18.387330 58.735010 -1.660080 10.232097 -22.068148 3.801019 -12.162164 -0.000113 0.000003 -0.000001 0.000000 0.000000 0.000000 -1.551827 -16.807004 -1.813556 -24.133594 -20.690484 -16.585588 53.631533 -1.613224 -10.191873 -27.962320 -6.409040 17.378458 -0.018377 0.000008 -0.000004 0.000000 0.000000 0.000000 -1.551827 -16.807004 -1.813556 3.439567 2.106399 -0.714445 2.544883 1.877307 -0.274411 0.000000 0.000000 0.000000 0.000000 0.000000 0.000000 2.515044 1.921508 -0.296163 0.734741 0.405917 5.043444 1.114063 8.137766 2.640524 0.000000 0.000000 0.000000 2.515044 1.921508 -0.296163 0.513393 -1.897956 19.022961 0.000000 0.000000 0.000000 -66.987190 -50.368882 -69.223305 0.000004 -32.953446 -0.000004 0.000000 0.000000 0.000000 2.515044 1.921508 -0.296163 0.544959 -0.110156 -6.249059 0.000000 0.000000 0.000000 -96.314034 67.391960 93.011289 0.000007 27.246627 -0.000015 0.000000 0.000000 0.000000 
-0.093776 30.650879 0.013548 0.000000 0.000000 0.000000 -1.434687 -16.751133 -1.786920 -37.480615 16.211715 18.386750 58.612497 -1.661901 10.146003 -21.772010 3.732103 -12.092496 -0.000115 0.000004 0.000000 0.000000 0.000000 0.000000 -1.434687 -16.751133 -1.786920 -24.443975 -20.849103 -16.607644 53.624457 -1.550217 -10.200414 -27.828547 -6.336935 17.240629 -0.020984 -0.000025 -0.000005 0.000000 0.000000 0.000000 -1.434687 -16.751133 -1.786920 3.426501 2.063206 -0.698260 2.540589 1.843790 -0.265268 0.000000 0.000000 0.000000 0.000000 0.000000 0.000000 2.512250 1.886744 -0.286176 0.866556 0.432066 4.975112 1.226029 8.166233 2.605302 0.000000 0.000000 0.000000 2.512250 1.886744 -0.286176 0.500182 -1.852690 18.933073 0.000000 0.000000 0.000000 -66.875516 -51.085447 -68.968491 0.000004 -32.604485 -0.000001 0.000000 0.000000 0.000000 2.512250 1.886744 -0.286176 0.571339 0.022154 -6.523164 0.000000 0.000000 0.000000 -95.965442 67.541582 92.527412 0.000004 27.226488 -0.000015 0.000000 0.000000 0.000000 
